<svg id="visual" viewBox="0 0 1200 600" width="1200" height="600" xmlns="http://www.w3.org/2000/svg" xmlns:xlink="http://www.w3.org/1999/xlink" version="1.1"><rect x="0" y="0" width="1200" height="600" fill="#002233"></rect><path d="M0 106L8.7 113.3C17.3 120.7 34.7 135.3 52 137.8C69.3 140.3 86.7 130.7 104.2 133.7C121.7 136.7 139.3 152.3 156.8 155C174.3 157.7 191.7 147.3 209 136.8C226.3 126.3 243.7 115.7 261 114C278.3 112.3 295.7 119.7 313 128.5C330.3 137.3 347.7 147.7 365 150C382.3 152.3 399.7 146.7 417.2 140.8C434.7 135 452.3 129 469.8 137.2C487.3 145.3 504.7 167.7 522 169.5C539.3 171.3 556.7 152.7 574 144.8C591.3 137 608.7 140 626 139.5C643.3 139 660.7 135 678 139.7C695.3 144.3 712.7 157.7 730.2 160.2C747.7 162.7 765.3 154.3 782.8 143.5C800.3 132.7 817.7 119.3 835 120.5C852.3 121.7 869.7 137.3 887 150.2C904.3 163 921.7 173 939 178.8C956.3 184.7 973.7 186.3 991 188C1008.3 189.7 1025.7 191.3 1043.2 183.5C1060.7 175.7 1078.3 158.3 1095.8 150.8C1113.3 143.3 1130.7 145.7 1148 143.7C1165.3 141.7 1182.7 135.3 1191.3 132.2L1200 129L1200 0L1191.3 0C1182.7 0 1165.3 0 1148 0C1130.7 0 1113.3 0 1095.8 0C1078.3 0 1060.7 0 1043.2 0C1025.7 0 1008.3 0 991 0C973.7 0 956.3 0 939 0C921.7 0 904.3 0 887 0C869.7 0 852.3 0 835 0C817.7 0 800.3 0 782.8 0C765.3 0 747.7 0 730.2 0C712.7 0 695.3 0 678 0C660.7 0 643.3 0 626 0C608.7 0 591.3 0 574 0C556.7 0 539.3 0 522 0C504.7 0 487.3 0 469.8 0C452.3 0 434.7 0 417.2 0C399.7 0 382.3 0 365 0C347.7 0 330.3 0 313 0C295.7 0 278.3 0 261 0C243.7 0 226.3 0 209 0C191.7 0 174.3 0 156.8 0C139.3 0 121.7 0 104.2 0C86.7 0 69.3 0 52 0C34.7 0 17.3 0 8.7 0L0 0Z" fill="#faf7f5" stroke-linecap="round" stroke-linejoin="miter"></path></svg>