<svg id="visual" viewBox="0 0 412 300" width="412" height="300" xmlns="http://www.w3.org/2000/svg" xmlns:xlink="http://www.w3.org/1999/xlink" version="1.1"><path d="M0 243L11.5 239.8C23 236.7 46 230.3 68.8 225.5C91.7 220.7 114.3 217.3 137.2 216.5C160 215.7 183 217.3 206 224.7C229 232 252 245 274.8 245.7C297.7 246.3 320.3 234.7 343.2 236C366 237.3 389 251.7 400.5 258.8L412 266L412 301L400.5 301C389 301 366 301 343.2 301C320.3 301 297.7 301 274.8 301C252 301 229 301 206 301C183 301 160 301 137.2 301C114.3 301 91.7 301 68.8 301C46 301 23 301 11.5 301L0 301Z" fill="#172554" stroke-linecap="round" stroke-linejoin="miter"></path></svg>