<svg id="visual" viewBox="0 0 1200 600" width="1200" height="600" xmlns="http://www.w3.org/2000/svg" xmlns:xlink="http://www.w3.org/1999/xlink" version="1.1"><path d="M0 554L13.3 555.2C26.7 556.3 53.3 558.7 80 552.8C106.7 547 133.3 533 160 533.2C186.7 533.3 213.3 547.7 240 549.3C266.7 551 293.3 540 320 533.8C346.7 527.7 373.3 526.3 400 531.7C426.7 537 453.3 549 480 548.2C506.7 547.3 533.3 533.7 560 532.8C586.7 532 613.3 544 640 545.8C666.7 547.7 693.3 539.3 720 539.5C746.7 539.7 773.3 548.3 800 546.5C826.7 544.7 853.3 532.3 880 528.8C906.7 525.3 933.3 530.7 960 530C986.7 529.3 1013.3 522.7 1040 524.7C1066.7 526.7 1093.3 537.3 1120 542C1146.7 546.7 1173.3 545.3 1186.7 544.7L1200 544L1200 601L1186.7 601C1173.3 601 1146.7 601 1120 601C1093.3 601 1066.7 601 1040 601C1013.3 601 986.7 601 960 601C933.3 601 906.7 601 880 601C853.3 601 826.7 601 800 601C773.3 601 746.7 601 720 601C693.3 601 666.7 601 640 601C613.3 601 586.7 601 560 601C533.3 601 506.7 601 480 601C453.3 601 426.7 601 400 601C373.3 601 346.7 601 320 601C293.3 601 266.7 601 240 601C213.3 601 186.7 601 160 601C133.3 601 106.7 601 80 601C53.3 601 26.7 601 13.3 601L0 601Z" fill="#172554" stroke-linecap="round" stroke-linejoin="miter"></path></svg>